# xmcd
#
# Track frame offsets:
#	150
#	21320
#	43093
#	64988
#	96499
#	118064
#	142751
#	181721
#	197386
#	225178
#
# Disc length: 3318 seconds
#
# Revision: 3
# Processed by: cddbd v1.5PL3 Copyright (c) Steve Scherf et al.
# Submitted via: EasyCDDAExtractor 7.0.0.1
#
DISCID=7e0cf40a
DTITLE=Knut Reiersrud - Sweet Showers Of Rain
DYEAR=2001
DGENRE=Blues
TTITLE0=Blues Power (part 3)
TTITLE1=Sweet Showers of Rain
TTITLE2=A Lovely Disarter
TTITLE3=Giving Up
TTITLE4=Jumpin' Judy
TTITLE5=Down On Me
TTITLE6=Motherless Children
TTITLE7=Reap What You Sow
TTITLE8=Epitaph
TTITLE9=The Old Man Still Sings
EXTD=
EXTT0=
EXTT1=
EXTT2=
EXTT3=
EXTT4=
EXTT5=
EXTT6=
EXTT7=
EXTT8=
EXTT9=
PLAYORDER=
